<?xml version="1.0" encoding="UTF-8"?>
<svg version="1.1" viewBox="0 0 2048 2048" width="2048" height="2048" xmlns="http://www.w3.org/2000/svg">
<path transform="translate(0)" d="m0 0h2048v2048h-2048z" fill="#FDFDFD"/>
<path transform="translate(235,673)" d="m0 0h157l6 7v2h2l3 4v2h2l8 10 11 13 9 11 12 14 9 11 12 14 11 13 9 11 11 13 9 11 12 14 9 11 22 26 9 11 11 13 12 14 7 9 12 14 9 11 12 14 7 9h3l11-14 9-10 8-10 12-14 9-11 11-13 9-11 11-13 9-11 12-14 9-11 11-13 9-11 11-13 9-11 11-13 9-11 7-9h2l3-6h2l2-4 11-13 9-11 11-13 5-7h2l2-4 9-11h158v702h-152v-470l-5 5-11 13-9 11-12 14-14 17-2 3h-2l-2 4-11 13-9 11-12 14-9 11-12 14-9 11-12 14-9 11-11 13-9 11-12 14-9 11-12 14-9 11-12 14-9 11-12 14-6 8-4-1-9-11-12-14-9-11-13-15-9-11-13-15-9-11-13-15-5-6v-2h-2l-8-10-12-14-9-11-13-15-9-11-13-15-9-11-12-14-9-11-9-10-18-22-13-15-11-13-2-1v468h-151z"/>
<path transform="translate(1142,673)" d="m0 0h152l1 4v270h138l22-26 9-11 12-14 11-13 9-11 12-14 1-2h2l2-4 12-14 9-11 11-13 9-11 11-13 9-11 11-13 9-11 11-13 9-11 11-13 9-11 11-13 9-11 8-10h159v53l-9 10-9 11-12 14-8 10-13 15-11 14-10 11-8 10-12 14-9 11-12 14-9 11-12 14-9 11-12 14-9 11-12 14-11 13-9 11-11 13-9 11-12 14-9 11-12 14 1 5 12 14 9 11 12 14 9 11 12 14 9 11 12 14 9 11 12 14 9 11 12 14 9 11 13 15 9 11 11 13 9 11 11 13 12 14 8 10 12 14 9 11 12 14 11 13 5 6v53h-159l-12-14-9-11-22-26-8-10-11-13-9-11-12-14-9-11-22-26-9-11-12-14-9-11-22-26-9-11-12-14-9-11-11-13-9-11-11-13-2-3h-138l-1 274h-152z"/>
<path transform="translate(448,671)" d="m0 0h369l4 1-2 6-10 11-8 11h-2l-2 4-11 14-8 9-11 14-10 12-7 8-12 15h-2l-2 5-9 10-3 5-5 5-8 10-9 11-7 8-1 2h-2l-2 5-4 5h-2l-2 5-3 1-2 4-9 11-6 8h-2l-2 4-11 14-8 9-1 3h-5l-11-13-8-10-2-4h-2l-10-13-9-10-12-16-1-3-4-2-1-3h-2l-4-6-7-9-5-5-7-9-6-7-12-15-5-6v-2l-3-1-6-8-12-14-9-11-7-9-6-7v-2l-4-2-4-6-2-4h-2l-8-10-7-9-9-11 1-2z" fill="#FEC60B"/>
<path transform="translate(1820,818)" d="m0 0 3 2v407l-2 2-5-5-5-6v-2h-2l-9-11-13-15-11-12-11-14-5-6-5-5-11-13-9-11-12-13-8-10v-2l-3-1-7-8-8-10-9-10-6-7v-2h-2l-11-14-2-4h-2l-7-8-13-16 2-5 4-5 5-5 10-11 10-13h2l2-4 4-5h2l2-5h2l2-5 4-2 2-4 12-14 8-10h2l2-4 8-9 11-14 7-7 9-11 11-12 4-6h2l2-4 4-5h2l2-5 6-7h2l2-4 12-14 9-10z" fill="#FEC60B"/>
</svg>
